<svg width="260" height="130" viewBox="0 0 260 130" fill="none" xmlns="http://www.w3.org/2000/svg">
<path d="M49.1846 65L150.43 65" stroke="#DDC3AA" stroke-opacity="0.72" stroke-linecap="round" stroke-linejoin="round" stroke-dasharray="2 2"/>
<path d="M126.118 44.9821L150.43 65.0677L125.791 86.729" stroke="#DDC3AA" stroke-opacity="0.72" stroke-linecap="round" stroke-linejoin="round"/>
<path fill-rule="evenodd" clip-rule="evenodd" d="M203.324 17.06C213.265 17.06 221.324 25.119 221.324 35.0601C221.324 45.0013 213.265 53.0602 203.324 53.0602C193.383 53.0602 185.324 45.0013 185.324 35.0601C185.324 25.119 193.383 17.06 203.324 17.06ZM173.253 109.501C165.21 103.658 163.427 92.401 169.27 84.3583C175.114 76.3157 186.37 74.5329 194.413 80.3763C202.456 86.2194 204.238 97.4762 198.395 105.519C192.552 113.561 181.295 115.344 173.253 109.501ZM237.436 84.3583C243.279 92.401 241.496 103.658 233.454 109.501C225.411 115.344 214.154 113.561 208.311 105.519C202.468 97.4762 204.25 86.2194 212.293 80.3763C220.336 74.5329 231.593 76.3157 237.436 84.3583ZM154.642 52.342C157.714 42.8875 167.869 37.7134 177.323 40.7854C186.778 43.8574 191.952 54.0123 188.88 63.4668C185.808 72.9213 175.653 78.0955 166.198 75.0235C156.744 71.9515 151.57 61.7969 154.642 52.342ZM229.312 40.7854C238.767 37.7134 248.922 42.8875 251.994 52.342C255.066 61.7969 249.892 71.9515 240.437 75.0235C230.982 78.0955 220.828 72.9213 217.756 63.4668C214.684 54.0123 219.858 43.8574 229.312 40.7854Z" fill="url(#paint0_linear_110_529)"/>
<path d="M169.675 84.6518C175.356 76.8328 186.3 75.0997 194.119 80.7807C201.938 86.4614 203.672 97.4058 197.991 105.225C192.31 113.044 181.366 114.777 173.547 109.096C165.728 103.415 163.994 92.4711 169.675 84.6518ZM212.587 80.7807C220.406 75.0997 231.35 76.8328 237.031 84.6518C242.712 92.471 240.979 103.415 233.16 109.096C225.341 114.777 214.397 113.044 208.716 105.225C203.035 97.4058 204.768 86.4615 212.587 80.7807ZM155.117 52.4966C158.104 43.3047 167.977 38.2746 177.169 41.2612C186.361 44.248 191.391 54.1203 188.404 63.312C185.418 72.5039 175.545 77.535 166.353 74.5483C157.161 71.5616 152.131 61.6887 155.117 52.4966ZM229.467 41.2612C238.659 38.2745 248.532 43.3047 251.519 52.4966C254.505 61.6887 249.475 71.5616 240.283 74.5483C231.091 77.535 221.218 72.5039 218.231 63.312C215.245 54.1203 220.275 44.248 229.467 41.2612ZM203.324 17.56C212.989 17.5602 220.824 25.3952 220.824 35.06C220.824 44.725 212.989 52.5599 203.324 52.56C193.659 52.56 185.824 44.7251 185.824 35.06C185.824 25.3951 193.659 17.56 203.324 17.56Z" stroke="#DDC3AA" stroke-opacity="0.72"/>
<rect x="7.12012" y="19.9145" width="42.0643" height="90.1706" rx="2" fill="url(#paint1_linear_110_529)" stroke="#DDC3AA" stroke-opacity="0.72" stroke-linecap="round" stroke-linejoin="round"/>
<line x1="74.7402" y1="50.9301" x2="74.7402" y2="79.0696" stroke="#DDC3AA" stroke-opacity="0.72" stroke-linecap="round"/>
<line x1="92.8882" y1="50.9301" x2="92.8882" y2="79.0696" stroke="#DDC3AA" stroke-opacity="0.72" stroke-linecap="round"/>
<line x1="111.037" y1="50.9301" x2="111.037" y2="79.0696" stroke="#DDC3AA" stroke-opacity="0.72" stroke-linecap="round"/>
<defs>
<linearGradient id="paint0_linear_110_529" x1="212.748" y1="30.3351" x2="195.498" y2="98.4251" gradientUnits="userSpaceOnUse">
<stop stop-color="#EBDED1" stop-opacity="0"/>
<stop offset="1" stop-color="#EBDED1"/>
</linearGradient>
<linearGradient id="paint1_linear_110_529" x1="42.6145" y1="30.2512" x2="3.12511" y2="106.456" gradientUnits="userSpaceOnUse">
<stop stop-color="#EBDED1" stop-opacity="0"/>
<stop offset="1" stop-color="#EBDED1"/>
</linearGradient>
</defs>
</svg>
