<svg width="260" height="130" viewBox="0 0 260 130" fill="none" xmlns="http://www.w3.org/2000/svg">
<path d="M96.905 64.9442C81.1971 64.9442 74.8434 54.1443 66.5407 47.2392C63.4533 44.6715 63.713 42.848 64.5803 41.5596C65.4477 40.2713 67.1861 39.2777 69.2096 38.7063C71.2332 38.1349 73.4892 38.0159 75.2303 38.7652C76.9713 39.5145 78.1291 41.1357 78.5578 43.73C78.9865 46.3244 78.6511 49.8427 76.1547 53.536C70.3725 62.0905 62.5494 65.5361 58.3403 66.8834C52.593 68.723 45.0833 68.9163 39.8013 67.6486C37.9962 67.2153 39.7779 63.8453 41.8025 61.5347C53.0119 48.7418 79.9073 45.053 92.2912 46.1027C102.142 46.9376 75.1385 55.3021 72.7279 54.9926C71.6261 54.8511 71.5869 52.6832 72.2244 51.4138C72.8618 50.1444 74.3857 49.3131 75.2293 50.1886C76.0729 51.0642 76.1901 53.6718 74.6283 56.0069C65.649 69.4331 31.5191 58.8026 21.1932 52.0795C19.7364 51.131 20.6256 48.8207 21.4001 46.7701C26.157 34.1767 47.5322 21.006 61.2037 13.4626C68.4645 9.4563 63.5255 36.6938 71.3605 60.98C72.9131 65.7924 74.4439 66.9967 74.0477 66.9232C73.6514 66.8497 71.6587 65.324 70.5898 63.2325C65.6983 53.6612 78.061 40.7052 92.1513 27.603C95.3696 24.6103 98.4355 24.0549 100.416 24.0696C102.397 24.0843 103.569 25.1392 104.344 26.7521C105.119 28.3649 105.462 30.5037 105.278 32.4116C104.336 42.1706 86.9896 51.183 63.0882 59.8075C48.3075 65.141 28.9974 65.6952 13.0354 65.854C7.66141 65.9075 7.96575 63.1906 10.9904 59.4411C27.2187 39.3241 46.5814 32.9393 62.0268 28.8654C72.4502 26.1162 88.9437 43.7736 97.6744 53.8637C102.812 59.8011 102.043 72.8978 100.469 84.5628C99.8558 89.109 96.8521 90.275 91.8731 90.7295C67.9957 92.9091 55.1219 84.6336 43.5149 76.9013C37.5574 72.9326 35.1469 66.3158 33.808 59.4896C32.0131 50.3381 35.1815 42.0825 38.9683 37.2857C46.501 27.7438 63.4071 26.4394 73.9943 26.4229C78.1286 26.4164 79.6854 27.8923 81.6695 31.6934C91.3568 50.2526 90.0709 63.3762 87.3865 71.8074C82.6134 86.7981 51.468 77.2342 55.8843 77.1062C61.228 76.9514 65.1616 73.2568 66.2511 71.9182C67.7218 70.1112 57.0308 69.5613 49.6183 63.8161C46.6747 61.5346 46.7862 58.9797 47.4174 57.3392C48.6502 54.1351 54.2671 52.9511 59.5556 52.5973C61.6911 52.4544 62.6656 54.0359 63.318 55.9391C66.2705 64.5517 65.5946 70.8385 65.0031 75.0338C63.8468 83.235 41.1199 91.5977 27.0296 95.1404C16.3211 97.8329 44.1795 60.4433 57.0482 47.0417C62.232 41.6432 68.5107 39.6541 72.8791 38.7289C76.4289 37.977 81.3905 44.2374 86.5839 51.5818C88.7085 54.5865 88.7722 58.0105 85.5864 62.5243C67.7214 87.8358 47.7468 93.2844 37.6887 97.9171C33.806 99.7055 32.1823 99.852 33.0485 91.5616C37.9663 44.4914 46.1885 35.2853 48.612 31.9381C49.7515 30.3643 51.1509 29.3898 56.6138 33.4303C72.7222 45.3446 85.0826 60.3954 92.2952 70.3753C107.866 91.92 106.285 104.194 105.671 108.646C105.373 110.801 103.829 112.471 101.891 113.543C91.9122 119.061 53.8317 96.1893 32.9454 85.3899C31.1982 84.4865 30.9637 82.5246 31.3503 80.8333C32.2015 77.1102 39.1315 72.7413 47.2581 68.3908C50.4696 66.6715 52.2684 66.8372 53.991 68.1077C62.9422 74.7099 61.0589 97.9796 61.0033 108.877C60.9702 115.372 81.8972 89.1509 94.693 81.0767C103.708 75.388 73.8977 100.606 58.2825 105.091C48.7751 107.822 41.2294 104.185 38.9703 102.156C26.1551 90.6495 48.8779 59.9035 51.4373 56.2843C56.5287 49.0844 77.1452 60.5958 102.331 75.465C107.785 78.6847 110.212 81.6807 111.745 83.7612C113.278 85.8417 113.567 87.3457 113.072 89.1412C110.487 98.5151 93.496 104.245 80.2767 106.68C66.6687 109.187 50.6277 101.848 38.6698 94.2194C30.0282 88.7064 29.1216 77.9457 28.1201 75.3156C23.6088 63.4678 51.1855 65.1238 58.1713 66.3988C61.0264 66.9199 61.4818 70.2237 61.433 72.7492C61.2392 82.7637 44.5031 99.3484 23.3005 114.416C19.5582 117.075 16.4471 116.942 14.1473 116.927C11.8475 116.911 10.0423 116.32 8.93928 114.57C2.21222 103.897 11.6772 86.3719 18.8988 73.3884C23.7322 64.6987 46.4736 67.7683 71.9191 69.6021C96.173 71.35 111.221 77.1058 116.078 79.495C117.815 80.3495 116.94 82.1781 116.101 83.606C115.261 85.034 114.194 86.4406 112.874 87.5754C111.554 88.7103 110.014 89.5308 104.826 89.6494" stroke="#DDC3AA" stroke-opacity="0.72" stroke-linecap="round"/>
<path d="M209.663 21.3024L209.672 64.9572L226.386 24.6287L209.688 64.9639L240.562 34.1012L209.7 64.9758L250.035 48.2777L209.706 64.9917L253.361 65.0002L209.706 65.0086L250.035 81.7226L209.7 65.0245L240.562 95.899L209.688 65.0365L226.386 105.372L209.672 65.0431L209.663 108.698L209.655 65.0431L192.941 105.372L209.639 65.0365L178.764 95.899L209.627 65.0245L169.292 81.7226L209.62 65.0086L165.966 65.0002L209.62 64.9917L169.292 48.2777L209.627 64.9758L178.764 34.1012L209.639 64.9639L192.941 24.6287L209.655 64.9572L209.663 21.3024Z" stroke="#DDC3AA" stroke-opacity="0.72"/>
<path d="M105.56 65.0002H161.152" stroke="#DDC3AA" stroke-opacity="0.72" stroke-linecap="round" stroke-linejoin="round" stroke-dasharray="3 3"/>
</svg>
